<mxfile host="app.diagrams.net" modified="2023-07-19T17:32:42.970Z" agent="Mozilla/5.0 (Windows NT 10.0; Win64; x64) AppleWebKit/537.36 (KHTML, like Gecko) Chrome/114.0.0.0 Safari/537.36" version="21.6.3" etag="ncGx7kjL3Jr7WoNBLzbF" type="github">
  <diagram name="Page-1" id="_U_qtBOVI0sMTuVacd7b">
    <mxGraphModel>
      <root>
        <mxCell id="0" />
        <mxCell id="1" parent="0" />
      </root>
    </mxGraphModel>
  </diagram>
</mxfile>
